# xmcd
#
# Track frame offsets:
#	150
#	18768
#	38338
#	55661
#	75780
#	96052
#	110882
#	134898
#	155193
#	173097
#	191193
#
# Disc length: 2768 seconds
# Revision: 0
# Processed by: cddbd v1.5.2PL0 Copyright (c) Steve Scherf et al.
# Submitted via: dBpowerAMP V12.0
#
DISCID=880ace0b
DTITLE=Tommy Keys - Devils Den
DYEAR=2013
DGENRE=
TTITLE0=Devils Den
TTITLE1=You Don't Deserve A Thing
TTITLE2=Life Is Too Short
TTITLE3=Down and Dirty
TTITLE4=What To Do About Love
TTITLE5=Bison Bounce
TTITLE6=Leaky Ceiling Blues
TTITLE7=Chicken Shack
TTITLE8=Statesboro Blues
TTITLE9=That's What I love About The Blues
TTITLE10=Mess Around
EXTD=
EXTT0=
EXTT1=
EXTT2=
EXTT3=
EXTT4=
EXTT5=
EXTT6=
EXTT7=
EXTT8=
EXTT9=
EXTT10=
PLAYORDER=
